<svg xmlns="http://www.w3.org/2000/svg" xmlns:xlink="http://www.w3.org/1999/xlink" viewBox="44.8 40 310.4 320"><g data-name="icon" fill="#f8c144" data="id:6501280" transform="translate(24.873850114918557, 24.86027683839024) scale(3.5025500206638815)">
  <path d="M55.29,91.19c-.66,6.44,9.81,5.62,7.98-.3-.79-4.61-7.67-4.44-7.98,.3Z" fill="#FFFFFF"/><path d="M90.63,90.89c-.79-4.61-7.67-4.44-7.98,.3-.66,6.44,9.81,5.62,7.98-.3Z" fill="#FFFFFF"/><path d="M94.31,63.34v-.87s0-1.68,0-1.68v-3.39c-.01-1.81-.57-3.63-1.58-5.14-1.02-1.51-2.47-2.7-4.15-3.41-.84-.35-1.73-.57-2.64-.67l-.68-.04h-.32s-.21-.01-.21-.01h-.84s-6.73,0-6.73,0l-13.46,.02c-1.31,0-2.89-.19-4.27-.08-.26-2.81-1.36-5.58-3.12-7.87-.81-1.1-1.94-2.17-3.21-3.01-1.27-.85-2.74-1.37-4.06-1.53-1.33-.13-2.51,.11-3.29,.72-.78,.62-1.14,1.52-1.1,2.77,.03,1.03,.36,1.79,.76,2.34,.41,.57,.92,.99,1.47,1.35,1.07,.74,2.41,1.42,3.23,2.37,.95,1.02,1.58,2.31,1.86,3.66,.23,1.04,.13,3.61,.18,5.67l.08,6.44,.02,1.61c0,.29,0,.48,.02,.86l.07,1.07c.16,1.42,.45,2.84,1.01,4.17,.52,1.33,1.23,2.59,2.11,3.71,.86,1.14,1.89,2.14,3.03,2.98,2.27,1.71,5.05,2.72,7.86,2.95,1.56,.09,2.41,.03,3.54,.03l3.22-.03,6.54-.04c2.93-.07,5.85-1.05,8.25-2.74,2.4-1.69,4.29-4.08,5.36-6.83,.57-1.36,.85-2.83,.99-4.28l.05-1.1Zm-6.08,2.34c-.89,3.45-3.98,6.24-7.51,6.75-.44,.09-.88,.1-1.33,.12-.47,.02-1.08,0-1.61,0l-3.29-.02-6.58-.07c-1.85-.02-3.53-.51-5-1.48-.73-.47-1.4-1.05-1.94-1.72-.56-.66-1.03-1.39-1.36-2.18-.35-.78-.57-1.61-.66-2.45-.07-.42-.06-.84-.06-1.26,0-.45,.04-1.07,.05-1.6l.29-6.58,.07-1.36c1.34,.09,2.86-.1,4.06-.08,4.39,.07,8.77,.11,13.16,.13l6.58,.02h1.65s.21,0,.21,0h.13s.25,.02,.25,.02c.17,.03,.34,.04,.5,.09,.65,.16,1.26,.52,1.72,1.01,.47,.49,.78,1.12,.91,1.78,.03,.17,.05,.33,.05,.51v.13s.01,.2,.01,.2v.41s0,1.65,0,1.65v3.29c-.02,.97-.06,1.81-.33,2.68Z" fill="#FFFFFF"/><path d="M6.44,41.52l-.45,6.2-.17,3.1c-.05,1.04-.14,2.02-.13,3.23,0,2.32,.38,4.67,1.1,6.91,1.43,4.5,4.22,8.38,7.43,11.51,3.19,3.14,6.9,5.75,10.91,7.78,2.98,1.54,6.93,2.94,10.19,3.04,3.27,.14,5.67-.92,5.72-3.4,.06-2.07-1.87-3.07-4.32-3.97-2.46-.86-5.52-1.67-7.85-2.72-2.66-1.14-5.16-2.62-7.45-4.34-2.3-1.75-4.34-3.73-5.9-5.92-1.57-2.19-2.58-4.6-2.99-7.14-.11-.63-.16-1.28-.19-1.93l-.02-1,.03-1.19,.12-4.75c.23-6.32,.68-12.63,1.6-18.79,.44-3.09,1.05-6.12,1.82-9.06,.38-1.47,.84-2.89,1.34-4.26,.52-1.34,1.11-2.66,1.74-3.65l.24-.35c.06-.06,.1-.13,.16-.18,.11-.12,.24-.21,.37-.29,.27-.17,.59-.26,.91-.27,.32-.02,.63,.06,.92,.19,.61,.31,1.37,.75,2.05,1.18,2.78,1.76,5.32,3.94,7.27,6.41l.02,.03c.96,1.22,2.65,1.7,4.15,1.08,6.53-2.72,14.08-2.71,20.61,0,1.43,.6,3.15,.2,4.16-1.08l.02-.02c1.54-1.96,3.46-3.73,5.57-5.26,1.05-.77,2.18-1.48,3.28-2.08l.39-.21,.21-.09c.12-.04,.24-.08,.36-.1,.25-.04,.5-.04,.75,.01,.25,.05,.48,.16,.69,.3,.11,.07,.2,.16,.29,.24,.05,.04,.08,.1,.13,.14,.04,.05,.12,.17,.18,.25,.56,.84,1.13,2.01,1.61,3.2,.97,2.41,1.7,5.08,2.32,7.77,.99,4.13,.79,10.58,4.48,10.43,1.99-.08,2.51-1.81,2.4-4.07-.09-2.25-.87-4.99-1.3-7.09-.62-2.95-1.37-5.89-2.48-8.8-.56-1.46-1.19-2.9-2.1-4.35-.43-.7-1.11-1.58-1.92-2.2-.81-.64-1.75-1.1-2.74-1.37-.99-.27-2.04-.34-3.06-.19-.51,.07-1.01,.19-1.5,.37-.49,.17-.97,.41-1.29,.58-1.41,.75-2.72,1.58-3.99,2.49-2.09,1.5-4.04,3.23-5.78,5.2-3.52-1.25-7.26-1.89-11-1.89-3.74,0-7.48,.66-11,1.92-2.57-2.92-5.61-5.29-8.92-7.22-.5-.28-.91-.53-1.54-.81-.65-.3-1.34-.51-2.05-.61-1.42-.22-2.89-.02-4.2,.55-1.3,.56-2.49,1.56-3.24,2.67-.71,1.02-1.24,2.02-1.7,3.03-1.83,4.03-2.86,8.14-3.73,12.25-.84,4.12-1.47,8.25-1.92,12.38-.27,2.07-.41,4.13-.63,6.2Z" fill="#FFFFFF"/>
  </g></svg>