<svg xmlns="http://www.w3.org/2000/svg" xmlns:xlink="http://www.w3.org/1999/xlink" viewBox="87.5 145.94 225 108.13">
<g data-name="business_name_slogan_group" transform=" translate(0.00000762939453125, -73.96000671386719)"><g data-name="business_name" fill="#000000" data="id:291" transform="translate(82.88297965216582,164.6892573617832) scale(2.816666741282854)"><path d="M1.64,20l6.48,0q3.28,0,4.92,1.76t1.64,5.16l0,2.76q0,3.4-1.64,5.16t-4.92,1.76l-2.08,0l0,11.4l-4.4,0l0-28z M8.12,32.6q1.08,0,1.62-0.6t0.54-2.04l0-3.32q0-1.44-0.54-2.04t-1.62-0.6l-2.08,0l0,8.6l2.08,0z M17.08,20l12,0l0,4l-7.6,0l0,7.4l6.04,0l0,4l-6.04,0l0,8.6l7.6,0l0,4l-12,0l0-28z M35.04,24l-4.6,0l0-4l13.6,0l0,4l-4.6,0l0,24l-4.4,0l0-24z  M52.48,44.96q0-3,0.96-5.14t3.44-4.74q2.44-2.6,3.38-4.44t0.94-3.84q0-1.8-0.58-2.5t-1.7-0.7q-2.28,0-2.28,2.76l0,3l-4.16,0l0-2.72q0-3.4,1.68-5.22t4.88-1.82t4.88,1.82t1.68,5.22q0,2.56-1.22,5t-4.22,5.6q-1.96,2.08-2.64,3.38t-0.68,2.78l0,0.6l8.36,0l0,4l-12.72,0l0-3.04z M70.08,46.58q-1.68-1.82-1.68-5.22l0-21.36l4.4,0l0,21.68q0,1.44,0.58,2.08t1.66,0.64t1.66-0.64t0.58-2.08l0-21.68l4.24,0l0,21.36q0,3.4-1.68,5.22t-4.88,1.82t-4.88-1.82z"/></g><g data-name="slogan" fill="#000000" data="id:304" transform="translate(119.35580809273141,302.7465835809136) scale(0.45138365145215575)"><path d="M4.2,48l0-28l10.92,0q3.68,0,6.28,1.16t4,3.36t1.4,5.24t-1.4,5.22t-4,3.36t-6.28,1.18l-8.72,0l1.8-1.88l0,10.36l-4,0z M8.2,38.04l-1.8-2l8.6,0q3.84,0,5.82-1.64t1.98-4.64t-1.98-4.64t-5.82-1.64l-8.6,0l1.8-2l0,16.56z M41.96,48.24q-3.4,0-5.98-1.4t-4-3.84t-1.42-5.6t1.38-5.6t3.8-3.82t5.46-1.38q3.08,0,5.44,1.36t3.7,3.82t1.34,5.74q0,0.24-0.02,0.56t-0.06,0.6l-18.04,0l0-2.76l16.04,0l-1.56,0.96q0.04-2.04-0.84-3.64t-2.42-2.5t-3.58-0.9q-2,0-3.56,0.9t-2.44,2.52t-0.88,3.7l0,0.64q0,2.12,0.98,3.78t2.74,2.58t4.04,0.92q1.88,0,3.42-0.64t2.7-1.92l2.12,2.48q-1.44,1.68-3.58,2.56t-4.78,0.88z M64.28,48.24q-3.2,0-4.96-1.72t-1.76-4.92l0-19.44l3.84,0l0,19.28q0,1.72,0.86,2.64t2.46,0.92q1.8,0,3-1l1.2,2.76q-0.88,0.76-2.1,1.12t-2.54,0.36z M53.96,29.96l0-3.16l13.52,0l0,3.16l-13.52,0z  M91.6,48.24q-3.2,0-4.96-1.72t-1.76-4.92l0-19.44l3.84,0l0,19.28q0,1.72,0.86,2.64t2.46,0.92q1.8,0,3-1l1.2,2.76q-0.88,0.76-2.1,1.12t-2.54,0.36z M81.28,29.96l0-3.16l13.52,0l0,3.16l-13.52,0z M109.96,48.24q-3.2,0-5.68-1.4t-3.92-3.86t-1.44-5.58q0-3.16,1.44-5.6t3.92-3.82t5.68-1.38q3.16,0,5.66,1.38t3.92,3.8t1.42,5.62q0,3.16-1.42,5.6t-3.92,3.84t-5.66,1.4z M109.96,44.88q2.04,0,3.66-0.92t2.54-2.62t0.92-3.94q0-2.28-0.92-3.94t-2.54-2.58t-3.66-0.92t-3.64,0.92t-2.56,2.58t-0.96,3.94q0,2.24,0.96,3.94t2.56,2.62t3.64,0.92z  M137.96,56q-1.52,0-2.96-0.5t-2.48-1.46l1.64-2.88q0.8,0.76,1.76,1.16t2.04,0.4q1.4,0,2.32-0.72t1.72-2.56l1.32-2.92l0.4-0.48l8.32-19.24l3.76,0l-10.28,23.32q-0.92,2.24-2.06,3.52t-2.5,1.82t-3,0.54z M143,48.68l-9.68-21.88l4,0l8.24,18.88z M168.48,48.24q-3.2,0-5.68-1.4t-3.92-3.86t-1.44-5.58q0-3.16,1.44-5.6t3.92-3.82t5.68-1.38q3.16,0,5.66,1.38t3.92,3.8t1.42,5.62q0,3.16-1.42,5.6t-3.92,3.84t-5.66,1.4z M168.48,44.88q2.04,0,3.66-0.92t2.54-2.62t0.92-3.94q0-2.28-0.92-3.94t-2.54-2.58t-3.66-0.92t-3.64,0.92t-2.56,2.58t-0.96,3.94q0,2.24,0.96,3.94t2.56,2.62t3.64,0.92z M193.72,48.24q-2.72,0-4.78-1t-3.2-3.06t-1.14-5.18l0-12.2l3.84,0l0,11.76q0,3.12,1.5,4.68t4.22,1.56q2,0,3.48-0.82t2.28-2.4t0.8-3.82l0-10.96l3.84,0l0,21.2l-3.64,0l0-5.72l0.6,1.52q-1.04,2.12-3.12,3.28t-4.68,1.16z M211.88,48l0-21.2l3.68,0l0,5.76l-0.36-1.44q0.88-2.2,2.96-3.36t5.12-1.16l0,3.72q-0.24-0.04-0.46-0.04l-0.42,0q-3.08,0-4.88,1.84t-1.8,5.32l0,10.56l-3.84,0z  M250.36,26.6q2.6,0,4.58,1t3.1,3.04t1.12,5.16l0,12.2l-3.84,0l0-11.76q0-3.08-1.5-4.64t-4.22-1.56q-2.04,0-3.56,0.8t-2.34,2.36t-0.82,3.88l0,10.92l-3.84,0l0-29.68l3.84,0l0,14.2l-0.76-1.52q1.04-2.08,3.2-3.24t5.04-1.16z M275.36,48.24q-3.2,0-5.68-1.4t-3.92-3.86t-1.44-5.58q0-3.16,1.44-5.6t3.92-3.82t5.68-1.38q3.16,0,5.66,1.38t3.92,3.8t1.42,5.62q0,3.16-1.42,5.6t-3.92,3.84t-5.66,1.4z M275.36,44.88q2.04,0,3.66-0.92t2.54-2.62t0.92-3.94q0-2.28-0.92-3.94t-2.54-2.58t-3.66-0.92t-3.64,0.92t-2.56,2.58t-0.96,3.94q0,2.24,0.96,3.94t2.56,2.62t3.64,0.92z M318.2,26.6q2.56,0,4.52,1t3.06,3.04t1.1,5.16l0,12.2l-3.84,0l0-11.76q0-3.08-1.44-4.64t-4.04-1.56q-1.92,0-3.36,0.8t-2.22,2.36t-0.78,3.88l0,10.92l-3.84,0l0-11.76q0-3.08-1.42-4.64t-4.06-1.56q-1.88,0-3.32,0.8t-2.24,2.36t-0.8,3.88l0,10.92l-3.84,0l0-21.2l3.68,0l0,5.64l-0.6-1.44q1-2.08,3.08-3.24t4.84-1.16q3.04,0,5.24,1.5t2.88,4.54l-1.56-0.64q0.96-2.44,3.36-3.92t5.6-1.48z M343.4,48.24q-3.4,0-5.98-1.4t-4-3.84t-1.42-5.6t1.38-5.6t3.8-3.82t5.46-1.38q3.08,0,5.44,1.36t3.7,3.82t1.34,5.74q0,0.24-0.02,0.56t-0.06,0.6l-18.04,0l0-2.76l16.04,0l-1.56,0.96q0.04-2.04-0.84-3.64t-2.42-2.5t-3.58-0.9q-2,0-3.56,0.9t-2.44,2.52t-0.88,3.7l0,0.64q0,2.12,0.98,3.78t2.74,2.58t4.04,0.92q1.88,0,3.42-0.64t2.7-1.92l2.12,2.48q-1.44,1.68-3.58,2.56t-4.78,0.88z"/></g></g></svg>